<svg width="46" height="46" viewBox="0 0 46 46" fill="none" xmlns="http://www.w3.org/2000/svg">
<path d="M42.7402 37.7544L34.006 5.15188C33.5461 3.48828 32.0471 2.28735 30.2667 2.28735C29.9124 2.28735 29.5707 2.33516 29.2444 2.42375L29.2711 2.41813L25.1972 3.50938C24.7402 3.64157 24.3408 3.84125 23.9878 4.1L23.9991 4.09297C23.31 2.98625 22.1021 2.26063 20.7225 2.25641H16.5066C15.3971 2.25781 14.3972 2.73031 13.6969 3.48406L13.6941 3.48688C12.991 2.73172 11.9911 2.25922 10.8816 2.25782H6.66284C4.52815 2.26063 2.79847 3.99031 2.79565 6.125V39.875C2.79847 42.0097 4.52815 43.7394 6.66284 43.7422H10.8816C11.9911 43.7394 12.991 43.2683 13.6913 42.5145L13.6941 42.5117C14.3972 43.2683 15.3971 43.7394 16.5066 43.7422H20.7225C22.8572 43.7394 24.5869 42.0097 24.5897 39.875V16.1825L31.1977 40.8481C31.6575 42.5103 33.1552 43.7098 34.9327 43.7127C34.9341 43.7127 34.9369 43.7127 34.9397 43.7127C35.2927 43.7127 35.6344 43.6648 35.9592 43.5748L35.9325 43.5819L40.0078 42.492C41.67 42.0336 42.871 40.5345 42.871 38.7556C42.871 38.4013 42.8232 38.0567 42.7332 37.7305L42.7402 37.7572V37.7544ZM26.2294 14.1519L33.6966 12.1508L38.9743 31.8481L31.5057 33.8478L26.2294 14.1519ZM25.7414 5.54844L29.8139 4.45719C29.9503 4.41922 30.1078 4.39672 30.271 4.39672C31.0796 4.39672 31.7602 4.94375 31.9641 5.68766L31.9669 5.70031L33.1496 10.1145L25.681 12.1156L24.5869 8.03047V6.54688C24.8021 6.05891 25.2183 5.69328 25.7288 5.55125L25.7414 5.54844ZM16.5052 4.36719H20.7211C21.6914 4.3686 22.4775 5.15469 22.4789 6.125V10.6939L14.7474 10.6953V6.125C14.7488 5.15469 15.5349 4.3686 16.5052 4.36719ZM12.638 33.1953H4.90362V12.8047L12.638 12.8033V33.1953ZM14.7474 12.8047L22.4789 12.8033V33.1953H14.7474V12.8047ZM6.66144 4.36719H10.8802C11.8505 4.3686 12.6366 5.15469 12.638 6.125V10.6939L4.90362 10.6953V6.125C4.90503 5.15469 5.69112 4.3686 6.66144 4.36719ZM10.8802 41.6328H6.66144C5.69112 41.6314 4.90503 40.8453 4.90362 39.875V35.3047H12.638V39.875C12.6366 40.8453 11.8505 41.6314 10.8802 41.6328ZM20.7211 41.6328H16.5052C15.5349 41.6314 14.7488 40.8453 14.7474 39.875V35.3047H22.4789V39.875C22.4775 40.8453 21.6914 41.6314 20.7211 41.6328ZM40.5239 39.6303C40.2933 40.0311 39.9193 40.3264 39.4735 40.4488L39.4608 40.4516L35.3855 41.5414C35.2505 41.578 35.0958 41.5991 34.9369 41.5991C34.1283 41.5991 33.4463 41.0548 33.2382 40.3123L33.2353 40.2997L32.0527 35.8841L39.5213 33.8844L40.7039 38.3C40.7419 38.435 40.763 38.5911 40.763 38.7514C40.763 39.0748 40.6744 39.3786 40.5197 39.6373L40.5239 39.6303Z" fill="white"/>
</svg>
