<svg width="30" height="28" viewBox="0 0 30 28" fill="none" xmlns="http://www.w3.org/2000/svg">
<path d="M23.75 11.6667C22.3693 11.6667 21.25 12.7113 21.25 14C21.25 15.2887 22.3693 16.3333 23.75 16.3333C25.1307 16.3333 26.25 15.2887 26.25 14C26.25 12.7113 25.1307 11.6667 23.75 11.6667Z" fill="white"/>
<path d="M15 11.6667C13.6193 11.6667 12.5 12.7113 12.5 14C12.5 15.2887 13.6193 16.3333 15 16.3333C16.3808 16.3333 17.5 15.2887 17.5 14C17.5 12.7113 16.3808 11.6667 15 11.6667Z" fill="white"/>
<path d="M3.75 14C3.75 12.7113 4.86925 11.6667 6.25 11.6667C7.63075 11.6667 8.75 12.7113 8.75 14C8.75 15.2887 7.63075 16.3333 6.25 16.3333C4.86925 16.3333 3.75 15.2887 3.75 14Z" fill="white"/>
</svg>
