<svg width="51" height="50" viewBox="0 0 51 50" fill="none" xmlns="http://www.w3.org/2000/svg">
<path d="M11.0833 14.5833V10.4167C11.0833 8.11548 12.9488 6.25 15.25 6.25H27.75H40.25C42.5512 6.25 44.4166 8.11548 44.4166 10.4167V14.5833V35.4167V39.5833C44.4166 41.8846 42.5512 43.75 40.25 43.75H27.75H15.25C12.9488 43.75 11.0833 41.8846 11.0833 39.5833V35.4167V14.5833Z" stroke="white" stroke-width="3" stroke-linecap="round" stroke-linejoin="round"/>
<path d="M33.9999 25C33.9999 28.4519 31.2018 31.25 27.7499 31.25C24.2981 31.25 21.4999 28.4519 21.4999 25C21.4999 21.5481 24.2981 18.75 27.7499 18.75C31.2018 18.75 33.9999 21.5481 33.9999 25Z" stroke="white" stroke-width="3"/>
<path d="M19.4166 43.75C20.303 38.9433 22.5833 37.5 27.75 37.5C32.9166 37.5 35.1968 38.8385 36.0833 43.6452" stroke="white" stroke-width="3" stroke-linecap="round"/>
<path d="M6.91663 14.5833H11.0833" stroke="white" stroke-width="3" stroke-linecap="round" stroke-linejoin="round"/>
<path d="M6.91663 35.4167H11.0833" stroke="white" stroke-width="3" stroke-linecap="round" stroke-linejoin="round"/>
<path d="M6.91663 25H11.0833" stroke="white" stroke-width="3" stroke-linecap="round" stroke-linejoin="round"/>
</svg>
