<svg width="50" height="50" viewBox="0 0 50 50" fill="none" xmlns="http://www.w3.org/2000/svg">
<path d="M39.5833 18.75V35.4167C39.5833 39.345 39.5833 41.3092 38.3629 42.5296C37.1425 43.75 35.1783 43.75 31.25 43.75H29.1666H20.8333H18.75C14.8216 43.75 12.8574 43.75 11.637 42.5296C10.4166 41.3092 10.4166 39.345 10.4166 35.4167V18.75" stroke="white" stroke-width="3" stroke-linejoin="round"/>
<path d="M6.25 22.9167L15.625 14.5833L22.2319 8.71061C23.8104 7.30734 26.1896 7.30734 27.7681 8.71061L34.375 14.5833L43.75 22.9167" stroke="white" stroke-width="3" stroke-linecap="round" stroke-linejoin="round"/>
<path d="M20.8334 43.75V35.4167C20.8334 33.1154 22.6988 31.25 25 31.25C27.3013 31.25 29.1667 33.1154 29.1667 35.4167V43.75" stroke="white" stroke-width="3" stroke-linecap="round" stroke-linejoin="round"/>
</svg>
