<svg width="70" height="70" viewBox="0 0 70 70" fill="none" xmlns="http://www.w3.org/2000/svg">
<path d="M44.7234 10.9375H25.2744C21.4729 10.9404 17.8279 12.4518 15.1399 15.1399C12.4518 17.8279 10.9404 21.4729 10.9375 25.2744V44.7234C10.9398 48.5253 12.451 52.1708 15.1391 54.8594C17.8272 57.5479 21.4725 59.0596 25.2744 59.0625H44.7234C48.5251 59.059 52.1701 57.5471 54.8581 54.8587C57.5461 52.1703 59.0574 48.5251 59.0603 44.7234V25.2744C59.0586 21.4725 57.5475 17.8269 54.8592 15.1386C52.1709 12.4503 48.5253 10.9392 44.7234 10.9375ZM54.2216 44.7234C54.221 47.2423 53.2201 49.6579 51.439 51.439C49.6579 53.2201 47.2423 54.221 44.7234 54.2216H25.2744C24.0272 54.2216 22.7922 53.9759 21.6399 53.4985C20.4877 53.0212 19.4408 52.3215 18.559 51.4395C17.6772 50.5575 16.9777 49.5104 16.5006 48.358C16.0236 47.2057 15.7782 45.9706 15.7784 44.7234V25.2744C15.7782 24.0273 16.0236 22.7923 16.5007 21.6401C16.9778 20.4879 17.6773 19.4409 18.5591 18.5591C19.4409 17.6773 20.4879 16.9778 21.6401 16.5007C22.7923 16.0236 24.0273 15.7781 25.2744 15.7784H44.7234C47.2417 15.779 49.6567 16.7797 51.4374 18.5604C53.2182 20.3411 54.2188 22.7561 54.2194 25.2744L54.2216 44.7234Z" fill="white"/>
<path d="M35 22.5575C28.1356 22.5575 22.5575 28.1378 22.5575 35C22.5575 41.8622 28.1378 47.4425 35 47.4425C41.8622 47.4425 47.4425 41.8622 47.4425 35C47.4425 28.1378 41.8644 22.5575 35 22.5575ZM35 42.6016C32.9839 42.6019 31.0503 41.8013 29.6246 40.3759C28.1988 38.9506 27.3976 37.0172 27.3973 35.0011C27.397 32.9851 28.1976 31.0515 29.623 29.6257C31.0484 28.1999 32.9817 27.3988 34.9978 27.3985C37.0139 27.3982 38.9475 28.1988 40.3732 29.6241C41.799 31.0495 42.6002 32.9829 42.6005 34.9989C42.6008 37.015 41.8002 38.9486 40.3748 40.3744C38.9494 41.8002 37.0161 42.6013 35 42.6016ZM47.4687 19.6678C48.0583 19.6683 48.6344 19.8435 49.1244 20.1712C49.6144 20.499 49.9962 20.9647 50.2216 21.5094C50.447 22.0541 50.5058 22.6535 50.3907 23.2316C50.2756 23.8098 49.9917 24.3408 49.5748 24.7577C49.158 25.1745 48.6269 25.4585 48.0488 25.5736C47.4706 25.6887 46.8713 25.6298 46.3266 25.4044C45.7819 25.179 45.3162 24.7972 44.9884 24.3072C44.6606 23.8173 44.4854 23.2411 44.485 22.6516C44.485 21.0066 45.6006 19.6678 47.4687 19.6678Z" fill="white"/>
</svg>
