<svg width="160" height="70" viewBox="0 0 160 70" fill="none" xmlns="http://www.w3.org/2000/svg">
<path d="M5.83336 13.6207V48.825C5.83336 51.625 8.10836 54.2497 10.9084 54.5997L11.8709 54.7167C18.2292 55.5625 28.0292 58.7997 33.6292 61.8914C34.3875 62.3289 35.6417 62.3289 36.4292 61.8914L36.5459 61.8333C42.1459 58.7708 51.9166 55.5625 58.2458 54.7167L59.0917 54.5997C61.8917 54.2497 64.1667 51.625 64.1667 48.825V13.5915C64.1667 10.1206 61.3376 7.49567 57.8668 7.78734C51.7418 8.28317 42.4668 11.3749 37.275 14.6124L36.5459 15.0498C35.7 15.5748 34.3 15.5748 33.4542 15.0498L32.9584 14.729C31.1209 13.5915 28.7875 12.454 26.25 11.4332V23.3332L20.4167 19.454L14.5834 23.3332V8.10832C13.7959 7.96248 13.0375 7.87487 12.3375 7.81653H12.1625C8.69169 7.52487 5.83336 10.1207 5.83336 13.6207Z" stroke="white" stroke-width="5" stroke-linecap="round" stroke-linejoin="round"/>
<path d="M62 56V57C59.5 57 57.8333 57.1667 56 57.5L62 56Z" fill="white"/>
<path d="M35 16.0125V59.7625" stroke="white" stroke-width="5" stroke-linecap="round" stroke-linejoin="round"/>
<path d="M14.5833 8.10843V23.3333L20.4167 19.4541L26.25 23.3333V11.4333C22.4292 9.91662 18.1708 8.69176 14.5833 8.10843Z" stroke="white" stroke-width="5" stroke-linecap="round" stroke-linejoin="round"/>
<path d="M56 5.5C58 5 60 5 65 5L62 6.49999L56 5.5Z" fill="white"/>
<path d="M62 5H138C140.761 5 143 7.23858 143 10V52C143 54.7614 140.761 57 138 57H62V5Z" fill="white"/>
<path d="M77.72 10.6H84.488L85.088 13.84H81.296V17.968H84.176V20.968H81.296V24.76H84.944L84.344 28H77.72V10.6ZM89.7541 13.648V18.208H91.3861C91.5141 18.208 91.6181 18.176 91.6981 18.112C91.7781 18.032 91.8181 17.912 91.8181 17.752V13.984C91.8181 13.76 91.7141 13.648 91.5061 13.648H89.7541ZM91.8661 21.352C91.8661 21.16 91.8181 21.032 91.7221 20.968C91.6261 20.888 91.4981 20.848 91.3381 20.848H89.7541V24.952H91.5061C91.6501 24.952 91.7461 24.928 91.7941 24.88C91.8421 24.816 91.8661 24.72 91.8661 24.592V21.352ZM95.1541 17.488C95.1541 17.92 95.0661 18.296 94.8901 18.616C94.7301 18.92 94.4181 19.136 93.9541 19.264C94.4341 19.296 94.7781 19.464 94.9861 19.768C95.2101 20.072 95.3221 20.416 95.3221 20.8V25.312C95.3221 26.272 95.1221 26.96 94.7221 27.376C94.3221 27.792 93.6181 28 92.6101 28H86.2981V10.6H93.0901C93.7781 10.6 94.2901 10.792 94.6261 11.176C94.9781 11.56 95.1541 12.072 95.1541 12.712V17.488ZM100.567 13.648C100.359 13.648 100.255 13.76 100.255 13.984V24.592C100.255 24.72 100.271 24.816 100.303 24.88C100.351 24.928 100.447 24.952 100.591 24.952H101.911C102.055 24.952 102.143 24.928 102.175 24.88C102.223 24.816 102.247 24.72 102.247 24.592V13.984C102.247 13.76 102.143 13.648 101.935 13.648H100.567ZM105.775 25.528C105.775 25.864 105.735 26.184 105.655 26.488C105.575 26.776 105.439 27.032 105.247 27.256C105.055 27.48 104.799 27.664 104.479 27.808C104.159 27.936 103.759 28 103.279 28H99.2473C98.7673 28 98.3673 27.936 98.0473 27.808C97.7273 27.664 97.4713 27.48 97.2793 27.256C97.0873 27.032 96.9513 26.776 96.8713 26.488C96.7913 26.184 96.7513 25.864 96.7513 25.528V12.856C96.7513 12.168 96.9353 11.624 97.3033 11.224C97.6873 10.808 98.2873 10.6 99.1033 10.6H103.423C104.239 10.6 104.831 10.808 105.199 11.224C105.583 11.624 105.775 12.168 105.775 12.856V25.528ZM111.02 13.648C110.812 13.648 110.708 13.76 110.708 13.984V24.592C110.708 24.72 110.724 24.816 110.756 24.88C110.804 24.928 110.9 24.952 111.044 24.952H112.364C112.508 24.952 112.596 24.928 112.628 24.88C112.676 24.816 112.7 24.72 112.7 24.592V13.984C112.7 13.76 112.596 13.648 112.388 13.648H111.02ZM116.228 25.528C116.228 25.864 116.188 26.184 116.108 26.488C116.028 26.776 115.892 27.032 115.7 27.256C115.508 27.48 115.252 27.664 114.932 27.808C114.612 27.936 114.212 28 113.732 28H109.7C109.22 28 108.82 27.936 108.5 27.808C108.18 27.664 107.924 27.48 107.732 27.256C107.54 27.032 107.404 26.776 107.324 26.488C107.244 26.184 107.204 25.864 107.204 25.528V12.856C107.204 12.168 107.388 11.624 107.756 11.224C108.14 10.808 108.74 10.6 109.556 10.6H113.876C114.692 10.6 115.284 10.808 115.652 11.224C116.036 11.624 116.228 12.168 116.228 12.856V25.528ZM121.21 18.064H121.738L123.514 10.6H127.114L125.026 18.616L127.09 28H123.273L121.906 20.824H121.21V28H117.658V10.6H121.21V18.064ZM78.584 52L77.96 48.76H81.704C81.976 48.76 82.112 48.64 82.112 48.4V45.232C82.112 44.992 82.064 44.848 81.968 44.8C81.872 44.752 81.704 44.728 81.464 44.728H79.664C79.408 44.728 79.16 44.712 78.92 44.68C78.696 44.632 78.488 44.536 78.296 44.392C78.12 44.248 77.976 44.048 77.864 43.792C77.768 43.536 77.72 43.192 77.72 42.76V36.856C77.72 36.168 77.904 35.624 78.272 35.224C78.656 34.808 79.256 34.6 80.072 34.6H84.872L85.472 37.84H81.536C81.248 37.84 81.104 37.968 81.104 38.224V41.392C81.104 41.568 81.144 41.688 81.224 41.752C81.32 41.816 81.456 41.848 81.632 41.848H83.816C84.376 41.848 84.8 41.984 85.088 42.256C85.392 42.512 85.544 42.968 85.544 43.624V49.36C85.544 50.32 85.344 51 84.944 51.4C84.56 51.8 83.872 52 82.88 52H78.584ZM93.8418 34.6L94.7058 37.84H92.3778V52H88.8258V37.84H86.4978L87.4098 34.6H93.8418ZM99.4891 37.648C99.2811 37.648 99.1771 37.76 99.1771 37.984V48.592C99.1771 48.72 99.1931 48.816 99.2251 48.88C99.2731 48.928 99.3691 48.952 99.5131 48.952H100.833C100.977 48.952 101.065 48.928 101.097 48.88C101.145 48.816 101.169 48.72 101.169 48.592V37.984C101.169 37.76 101.065 37.648 100.857 37.648H99.4891ZM104.697 49.528C104.697 49.864 104.657 50.184 104.577 50.488C104.497 50.776 104.361 51.032 104.169 51.256C103.977 51.48 103.721 51.664 103.401 51.808C103.081 51.936 102.681 52 102.201 52H98.1691C97.6891 52 97.2891 51.936 96.9691 51.808C96.6491 51.664 96.3931 51.48 96.2011 51.256C96.0091 51.032 95.8731 50.776 95.7931 50.488C95.7131 50.184 95.6731 49.864 95.6731 49.528V36.856C95.6731 36.168 95.8571 35.624 96.2251 35.224C96.6091 34.808 97.2091 34.6 98.0251 34.6H102.345C103.161 34.6 103.753 34.808 104.121 35.224C104.505 35.624 104.697 36.168 104.697 36.856V49.528ZM109.606 37.648V43.648H111.31C111.534 43.648 111.646 43.528 111.646 43.288V38.008C111.646 37.768 111.534 37.648 111.31 37.648H109.606ZM115.078 44.92C115.078 45.304 114.942 45.656 114.67 45.976C114.414 46.296 114.03 46.456 113.518 46.456L115.342 52H111.742L110.062 46.456H109.606V52H106.126V34.6H112.726C113.542 34.6 114.134 34.808 114.502 35.224C114.886 35.624 115.078 36.168 115.078 36.856V44.92ZM116.556 34.6H123.324L123.924 37.84H120.132V41.968H123.012V44.968H120.132V48.76H123.78L123.18 52H116.556V34.6Z" fill="#353434"/>
</svg>
